<svg id="Layer_1" data-name="Layer 1" xmlns="http://www.w3.org/2000/svg" viewBox="0 0 770.57 695.12"><defs><style>.cls-1{fill:#229304;}.cls-2{fill:#004d9d;}.cls-3{fill:#ee3d43;}.cls-4{fill:#fff;}</style></defs><g id="Layer_2" data-name="Layer 2"><path class="cls-1" d="M760,600.79c11.26,2.47,56.14,13.1,82.61,31.14.5.34,1,.67,1.54,1l36.77,20.78c.45.26.92.5,1.38.74,1,.54,3.84,2.58,4.15,8.54l8.94,87.56,33.9,2-8-84.81A71,71,0,0,1,921,659c.16-5.76.28-16.41-.76-23.92-.61-4.41-1-8.86-1.13-13.31-.43-10.84-3.45-32.57-18.28-60.9-1.6-3-3.35-6-5.18-8.93-1.93-3.08-5.06-9.34-4-16.2a3.29,3.29,0,0,0-1.88-3.52c-2.26-1-6,.13-9.67,13.08a107.56,107.56,0,0,0,3.68,31.57s6.53,16.55-16.91,21.77c-1,.23-2.07.48-3.1.77-7.15,2-41.28,9.56-94.58-8.15a20.66,20.66,0,0,0-12-.39c-3.43,1-6.09,2.77-3.21,6.28A10.63,10.63,0,0,0,760,600.79Z" transform="translate(-547.17 -158.92)"/><path class="cls-2" d="M941.41,577.43c.57,2.45,1.07,6.57-.87,9.76A41.18,41.18,0,0,0,936,597c-4.49,15.4-12.86,51.24-2.56,76.82,0,0,2.88,7.49,3.11,12.69.15,3.38.3,6.76.62,10.13l5.43,57.82L974.18,756l-6.84-64a5,5,0,0,1,2.49-4.85c9.82-5.55,43.07-23.86,67.65-31.49,2.71-.84,5.4-1.71,8.09-2.63,10.44-3.57,36.53-11.78,44.41-7.66,0,0,12.11-7.36-1.48-11.38a31.29,31.29,0,0,0-15.38-.52c-17.72,3.76-73.08,14-98.53,1.49,0,0-20.65-8.56-20-20.54a9.41,9.41,0,0,1,.13-1c.71-4.27,5.36-35.73-11.52-37.93A1.62,1.62,0,0,0,941.41,577.43Z" transform="translate(-547.17 -158.92)"/><path class="cls-1" d="M777.7,565.2a222,222,0,0,1,25.67,24.88s6.67,8.17,21.24,7.13c1.39-.1,2.78-.17,4.17-.16,9.23.09,43.84,0,39-7.34a4.59,4.59,0,0,0-1.91-1.58c-2.06-1-7.55-3.79-7.37-6.88a6.37,6.37,0,0,0-.05-1.51c-.82-4.55-5-25-14.52-31.21,0,0-8.24-5.67-6.69,1.14,0,0,6.63,22.66,8,30.56.18,1.06.42,2.1.68,3.15.4,1.64.46,3.78-3,1.2a16.12,16.12,0,0,1-4-4.27c-4.49-6.95-20-30.13-28.4-32.76,0,0-10.81-5-6.09,4.67,0,0,15.48,23.73,20.19,30.7a9.46,9.46,0,0,1,1.64,4.55c.16,2.12-.57,3.84-5.19-.6,0,0-30.67-27.27-38.83-28C782.16,558.88,769.39,558,777.7,565.2Z" transform="translate(-547.17 -158.92)"/><path class="cls-2" d="M972.59,623.94c2.48.18,9.42-.17,9.47-9.7a67.33,67.33,0,0,1,.31-6.81c.6-5.77,2-15.07,4.69-17.35.34-.29.69-.56,1-.87,1.71-1.62,6.69-5.7,5.74,2.73,0,0-1.66,20.33-.44,25,.15.59.32,1.17.45,1.76.56,2.49,2.22,7.76,5.31,1,0,0,15.39-31.8,25.11-31a14.44,14.44,0,0,0,2.18,0c2.09-.14,5.59.12,3.31,3.95-1.27,2.13-2.52,4.27-3.63,6.49l-11.91,23.76a3.1,3.1,0,0,0,.55,3.63c.91.86,2.4,1.19,4.72-.93,0,0,24.92-22,29-22.75,0,0,15.57-5.15,11.52,4.73l-21.9,20.58c-1.45,1.36-2.8,2.82-4.11,4.31s-3.69,3.46-6.74,2.81a18.81,18.81,0,0,0-4.48-.49c-10.12.27-44.15.36-50.61-10.17A.46.46,0,0,1,972.59,623.94Z" transform="translate(-547.17 -158.92)"/><path class="cls-1" d="M697.75,547.88s34.18-31.66,129.36-18.67c0,0,4.38,2.12,2.41-2.71,0,0-18.76-27.49-20.33-48.45,0,0-6.12,14.53,4.5,41.41,0,0,5.22,4.85-1.1,4.2,0,0-52.78-3.89-90.49-38.18,0,0,22.33,26.59,32.67,30,0,0,4.15,2.45.06,3.72C754.82,519.19,707.23,524.45,697.75,547.88Z" transform="translate(-547.17 -158.92)"/><path class="cls-1" d="M750.27,443.93s79.23-9.88,107.79,9.58c3.38,2.3,6.74,4.62,10.19,6.82,12.43,7.92,39.1,27.46,48.47,54.34,12.39,35.53-22.8-106.5,9.49-134.11,0,0-34.73,8.29-25.49,79.13,0,0,7.11,16.4-6.24,3.76,0,0-46.68-34.18-65-35.58a46,46,0,0,1-7.57-1.15c-13.08-3.26-47.29-14.36-70.57-45.25,0,0,14.41,32.25,50,49.4,0,0,10.43,3.95.07,5.44C801.47,436.33,771.63,436.27,750.27,443.93Z" transform="translate(-547.17 -158.92)"/><path class="cls-2" d="M923.82,586.41s-7.57-42.6,25.54-85.56c0,0,20.72-26.49,20.82-57.78,0,0,5.54,34.06-.53,50.59,0,0-3.17,10,4.24,3,0,0,25.35-17.19,33.46-21.71,1.68-.93,3.33-1.89,5-2.89,5-3.07,15.62-9.09,26.73-12.43a64.21,64.21,0,0,1,8.11-1.82c7.06-1.16,36.8-8.72,60.93-55.53,0,0-9.86,54.76-77.1,74.29,0,0-83.31,24.57-98.78,81.73C932.21,558.29,929,569.46,923.82,586.41Z" transform="translate(-547.17 -158.92)"/><path class="cls-2" d="M1034.23,574.42s72.47,9.41,87.47,26.65c0,0-25.67-24.3-63.67-28.42,0,0-15.42-2.9-3-10.72,0,0,20.06-8.55,33.23-3.63,0,0-16.57-13-47.17,6C1041.11,564.3,1023.88,572.87,1034.23,574.42Z" transform="translate(-547.17 -158.92)"/><polygon class="cls-3" points="459.63 408.66 445.39 402.06 431.88 410.05 433.76 394.47 421.99 384.09 437.39 381.06 443.62 366.65 451.26 380.36 466.89 381.84 456.21 393.34 459.63 408.66"/><polygon class="cls-3" points="230.05 205.23 215.81 198.63 202.3 206.62 204.17 191.04 192.4 180.66 207.8 177.63 214.04 163.23 221.68 176.94 237.3 178.42 226.62 189.92 230.05 205.23"/><polygon class="cls-3" points="565.46 370.53 554.78 365.58 544.65 371.57 546.06 359.89 537.23 352.1 548.78 349.83 553.45 339.02 559.18 349.31 570.9 350.42 562.9 359.05 565.46 370.53"/><polygon class="cls-3" points="216.36 326.64 205.68 321.69 195.54 327.68 196.95 315.99 188.12 308.21 199.67 305.93 204.35 295.13 210.08 305.41 221.8 306.52 213.79 315.15 216.36 326.64"/><polygon class="cls-3" points="408.13 280.95 397.45 276 387.31 281.99 388.72 270.3 379.89 262.51 391.44 260.24 396.12 249.44 401.85 259.72 413.57 260.83 405.56 269.46 408.13 280.95"/><polygon class="cls-3" points="595.89 420.48 586.13 415.95 576.87 421.43 578.16 410.75 570.09 403.63 580.64 401.56 584.91 391.69 590.15 401.08 600.86 402.1 593.54 409.98 595.89 420.48"/><polygon class="cls-3" points="571.45 464.77 563.08 460.89 555.14 465.59 556.24 456.43 549.33 450.33 558.38 448.55 562.04 440.09 566.53 448.14 575.71 449.01 569.44 455.77 571.45 464.77"/><polygon class="cls-3" points="502.43 355.84 495.15 352.46 488.23 356.55 489.19 348.58 483.16 343.26 491.05 341.71 494.24 334.34 498.15 341.36 506.15 342.11 500.68 348 502.43 355.84"/><polygon class="cls-3" points="588.48 278.49 581.19 275.11 574.27 279.2 575.24 271.22 569.21 265.91 577.09 264.36 580.28 256.99 584.2 264 592.19 264.76 586.73 270.65 588.48 278.49"/><polygon class="cls-3" points="174.36 417.1 167.07 413.72 160.15 417.81 161.11 409.83 155.09 404.52 162.97 402.97 166.16 395.59 170.07 402.61 178.07 403.37 172.61 409.26 174.36 417.1"/><polygon class="cls-3" points="539.85 218.91 532.56 215.53 525.64 219.62 526.6 211.64 520.58 206.33 528.46 204.77 531.65 197.4 535.56 204.42 543.56 205.18 538.1 211.07 539.85 218.91"/><polygon class="cls-3" points="354.53 225.73 347.24 222.35 340.32 226.44 341.28 218.46 335.26 213.15 343.14 211.59 346.33 204.22 350.24 211.24 358.24 212 352.78 217.88 354.53 225.73"/><polygon class="cls-3" points="328.41 369.76 322.08 366.83 316.08 370.38 316.91 363.45 311.68 358.84 318.53 357.49 321.3 351.09 324.69 357.18 331.64 357.84 326.89 362.95 328.41 369.76"/><polygon class="cls-3" points="216.29 415.39 209.96 412.46 203.95 416.01 204.79 409.08 199.56 404.47 206.4 403.13 209.17 396.72 212.57 402.82 219.51 403.47 214.77 408.59 216.29 415.39"/><polygon class="cls-3" points="420.52 210.83 414.19 207.9 408.19 211.45 409.02 204.52 403.79 199.91 410.64 198.56 413.41 192.16 416.8 198.26 423.75 198.91 419 204.03 420.52 210.83"/><polygon class="cls-3" points="401.05 318.38 395.34 315.73 389.93 318.94 390.68 312.69 385.96 308.53 392.13 307.31 394.63 301.54 397.69 307.04 403.96 307.63 399.68 312.24 401.05 318.38"/><polygon class="cls-3" points="277.67 206.06 271.96 203.42 266.55 206.62 267.3 200.37 262.58 196.21 268.75 195 271.25 189.22 274.31 194.72 280.58 195.31 276.3 199.92 277.67 206.06"/><polygon class="cls-3" points="322.34 336.66 316.01 333.72 310 337.27 310.84 330.35 305.61 325.74 312.45 324.39 315.22 317.99 318.62 324.08 325.56 324.74 320.81 329.85 322.34 336.66"/><polygon class="cls-3" points="502.83 271.83 496.5 268.89 490.49 272.44 491.33 265.52 486.1 260.9 492.94 259.56 495.71 253.16 499.11 259.25 506.05 259.91 501.3 265.02 502.83 271.83"/><polygon class="cls-3" points="457.06 288.26 450.74 285.33 444.73 288.88 445.57 281.95 440.34 277.34 447.18 276 449.95 269.59 453.35 275.69 460.29 276.34 455.54 281.46 457.06 288.26"/><polygon class="cls-3" points="466.13 243.96 459.8 241.03 453.8 244.58 454.63 237.66 449.4 233.04 456.25 231.7 459.02 225.3 462.41 231.39 469.36 232.05 464.61 237.16 466.13 243.96"/><polygon class="cls-3" points="280.91 244.64 274.58 241.71 268.58 245.26 269.41 238.33 264.18 233.72 271.02 232.38 273.79 225.97 277.19 232.07 284.13 232.72 279.39 237.84 280.91 244.64"/><path class="cls-1" d="M689.27,740.19c-8.64-5.94-17.13-12.31-25.25-19l-6.76,9.5.12.17a13.83,13.83,0,0,1,5.72.32,15.85,15.85,0,0,1,5.73,2.87,15.35,15.35,0,0,1,3.56,3.79,14,14,0,0,1,2,4.43,12.19,12.19,0,0,1,.23,4.62,10.83,10.83,0,0,1-1.61,4.35,9.88,9.88,0,0,1-3.71,3.51,15,15,0,0,1-4.86,1.6,21.28,21.28,0,0,1-5.42.09,37.07,37.07,0,0,1-5.31-1c-.11-2.38-.16-3.57-.24-5.95.54.15,1.22.31,2,.49s1.68.32,2.6.44a20.61,20.61,0,0,0,2.85.14,13.77,13.77,0,0,0,2.82-.34,8.48,8.48,0,0,0,2.51-1,5.75,5.75,0,0,0,1.91-1.86,5.93,5.93,0,0,0,.91-2.34,6.84,6.84,0,0,0,0-2.55,7.81,7.81,0,0,0-1-2.47,8,8,0,0,0-2-2.13,9.88,9.88,0,0,0-3.52-1.72,14.56,14.56,0,0,0-3.84-.49,13.5,13.5,0,0,0-3.52.46,7.6,7.6,0,0,0-2.57,1.15L641,753.64c-2.08-1.69-3.12-2.54-5.19-4.26l6.69-9.14-.09-.15c-.46-.05-1-.13-1.72-.23a12.73,12.73,0,0,1-2.33-.6,17.77,17.77,0,0,1-2.81-1.28,18.11,18.11,0,0,1-3.13-2.25,20.43,20.43,0,0,1-4.31-5.17,18.06,18.06,0,0,1-2.16-5.65,13.75,13.75,0,0,1,0-5.5,10.83,10.83,0,0,1,2.26-4.7,9.56,9.56,0,0,1,3.79-2.85,10.61,10.61,0,0,1,4.57-.79,13.72,13.72,0,0,1,4.83,1.15,17.58,17.58,0,0,1,4.67,3,19.14,19.14,0,0,1,2.67,2.86,24.67,24.67,0,0,1,1.89,2.91,23.53,23.53,0,0,1,1.29,2.72c.34.86.61,1.61.81,2.24l.14.08,6.39-8.73c-8.06-6.68-15.93-13.77-23.42-21.08l2.79-3.31a509.79,509.79,0,0,0,52.93,43.55C690.63,738,690.18,738.7,689.27,740.19ZM643.94,719.5a10.17,10.17,0,0,0-3.35-2,8.51,8.51,0,0,0-3.2-.51,6.59,6.59,0,0,0-2.77.74,6.38,6.38,0,0,0-2.07,1.68,6.7,6.7,0,0,0-1.26,2.66,8.74,8.74,0,0,0-.13,3.28,10.79,10.79,0,0,0,3.62,6.58,13.65,13.65,0,0,0,3.19,2,10.61,10.61,0,0,0,3.78,1,8.48,8.48,0,0,0,3.83-.61,7.84,7.84,0,0,0,3.34-2.76l.86-1.17a17.09,17.09,0,0,0-.68-2.79,20.2,20.2,0,0,0-1.22-2.91,19.67,19.67,0,0,0-1.72-2.78A16.4,16.4,0,0,0,643.94,719.5Z" transform="translate(-547.17 -158.92)"/><path class="cls-1" d="M705.7,751c-2.63-1.64-3.93-2.48-6.54-4.17l-20,34.58c-2.21-1.44-3.31-2.16-5.5-3.64l20.42-34.3c-2.8-1.89-4.2-2.84-7-4.79l2.3-3.71c2.75,1.93,4.13,2.88,6.91,4.75a16.57,16.57,0,0,1,2.09-7.39,9.29,9.29,0,0,1,2.79-3,8.05,8.05,0,0,1,3.83-1.32,12.74,12.74,0,0,1,4.82.62,24.76,24.76,0,0,1,5.81,2.8,36.23,36.23,0,0,1,7.37,6.09,53,53,0,0,1,6,7.76,86,86,0,0,1,5.06,9.26c1.58,3.33,3.14,6.84,4.71,10.54-2.24-1.15-3.36-1.73-5.59-2.91L731.71,759q-.91-2-2.19-4.34c-.84-1.59-1.81-3.26-2.89-5a61.62,61.62,0,0,0-3.57-5.2,46.56,46.56,0,0,0-4.28-4.85,29,29,0,0,0-5-4,16.68,16.68,0,0,0-3.92-1.9,7.52,7.52,0,0,0-3.09-.34,4.62,4.62,0,0,0-2.35,1,7,7,0,0,0-1.69,2,15.66,15.66,0,0,0-1.72,6.5c2.72,1.78,4.09,2.65,6.84,4.38C707,748.73,706.55,749.5,705.7,751Z" transform="translate(-547.17 -158.92)"/><path class="cls-1" d="M754.83,772.55l-1.67,4.06c-2.77-1.27-4.16-1.92-6.91-3.24l-15.87,36.82c-2.37-1.13-3.55-1.71-5.9-2.88l8.17-18.3c-7.88-3.92-11.78-6-19.5-10.33a11.7,11.7,0,0,1-4.79-1.3l-.13.09a66.8,66.8,0,0,0,3.38,11.58,62.45,62.45,0,0,0,6,11.43c-2.12.55-3.18.81-5.32,1.33a61.11,61.11,0,0,1-3.85-6.7,69.73,69.73,0,0,1-2.92-6.81q-1.25-3.39-2.11-6.68t-1.4-6.3q-.53-3-.78-5.69c-.17-1.78-.26-3.4-.3-4.87,2.19.32,3.29.47,5.48.76a16,16,0,0,0,.19,2.66,8,8,0,0,0,.57,2,5,5,0,0,0,1,1.43,6.33,6.33,0,0,0,1.37,1.06,4.28,4.28,0,0,0,4.07.49,6.52,6.52,0,0,0,3-3.17,12.79,12.79,0,0,0,1.05-2.91,20.2,20.2,0,0,0,.48-3c.09-1,.12-2,.11-2.94s0-1.81-.08-2.58c-5.88-3.4-8.8-5.17-14.57-8.83.86-1.52,1.29-2.29,2.14-3.81A525.78,525.78,0,0,0,754.83,772.55Zm-14-1.85c-7-3.47-10.4-5.28-17.22-9.09a31.59,31.59,0,0,1-.29,6.06,18.09,18.09,0,0,1-1.62,5.33,12.6,12.6,0,0,1-1.29,2.09,8.39,8.39,0,0,1-1.71,1.66l0,.09c6.22,3.42,9.36,5.07,15.69,8.22Z" transform="translate(-547.17 -158.92)"/><path class="cls-1" d="M770.87,784.23c-2.82-1.14-4.22-1.72-7-2.91l-14.34,37.49c-2.38-1-3.56-1.52-5.93-2.56L758.39,779c-3-1.34-4.53-2-7.54-3.42.68-1.62,1-2.43,1.69-4,7.86,3.66,11.82,5.38,19.82,8.61C771.77,781.75,771.47,782.58,770.87,784.23Z" transform="translate(-547.17 -158.92)"/><path class="cls-1" d="M813.24,798.74c-2.9-.82-4.35-1.25-7.24-2.12q-5.34,19.38-10.67,38.77c-2.47-.74-3.7-1.13-6.15-1.91l6.4-22.16c-6.65-2.12-10-3.24-16.54-5.63-.41,1.25-.78,2.31-1.11,3.19a9.67,9.67,0,0,1-1,2.09,2.42,2.42,0,0,1-1.17,1,2.28,2.28,0,0,1-1.52-.11,7.54,7.54,0,0,1-3.17-2.27,13.37,13.37,0,0,1-2.09-3.43,13.62,13.62,0,0,1-1-3.59,6.3,6.3,0,0,1,.15-2.77,2,2,0,0,1,1-1.22,3.08,3.08,0,0,1,1.55-.26,7.92,7.92,0,0,1,1.93.4c.69.23,1.39.47,2.08.73,8.78,3.33,13.21,4.88,22.13,7.71,1.42-4.92,2.13-7.38,3.56-12.3-10.76-3.6-21.26-7.42-31.82-11.58l1.52-4.12a412.25,412.25,0,0,0,44.29,15.32Z" transform="translate(-547.17 -158.92)"/><path class="cls-1" d="M890.54,813c-10-.86-20-2.12-29.91-3.76-.7,4.67-1,7-1.74,11.67l.17.09a14.08,14.08,0,0,1,5.06-2.62,14.58,14.58,0,0,1,6.17-.4,13.32,13.32,0,0,1,4.69,1.5,12.51,12.51,0,0,1,3.58,2.87,11.5,11.5,0,0,1,2.19,3.91,11.05,11.05,0,0,1,.48,4.6,10.65,10.65,0,0,1-1.7,4.92,16.38,16.38,0,0,1-3.51,3.84,21.7,21.7,0,0,1-4.63,2.8,38.06,38.06,0,0,1-5,1.84c-1.12-2-1.67-3-2.76-5,.53-.15,1.18-.34,2-.6s1.58-.57,2.43-.94a22.43,22.43,0,0,0,2.52-1.31,14.49,14.49,0,0,0,2.28-1.72,9.29,9.29,0,0,0,1.73-2.14,6.45,6.45,0,0,0,.85-2.58,6.2,6.2,0,0,0-.22-2.5,6.37,6.37,0,0,0-1.14-2.19,6.67,6.67,0,0,0-1.93-1.63,7.11,7.11,0,0,0-2.61-.86,9,9,0,0,0-3.77.29,14.51,14.51,0,0,0-3.51,1.52,14.73,14.73,0,0,0-2.83,2.18,8.16,8.16,0,0,0-1.71,2.3c-1.19,8-1.79,12-3,20-2.51-.4-3.77-.62-6.28-1.06.73-4.53,1.1-6.79,1.83-11.32l-.14-.09c-.42.19-.94.42-1.57.68a12.88,12.88,0,0,1-2.25.67,15.92,15.92,0,0,1-3,.33,16.61,16.61,0,0,1-3.64-.34,17.79,17.79,0,0,1-5.89-2.25,15.57,15.57,0,0,1-4.25-3.77,12.88,12.88,0,0,1-2.31-4.75,11.32,11.32,0,0,1-.07-5.21,10.64,10.64,0,0,1,2-4.41,11.54,11.54,0,0,1,3.57-3,13.49,13.49,0,0,1,4.62-1.49,15.45,15.45,0,0,1,5.27.2,16.4,16.4,0,0,1,3.51,1.11A22.65,22.65,0,0,1,849,815.9a19.57,19.57,0,0,1,2.26,1.7c.66.58,1.21,1.08,1.65,1.53h.15l1.75-10.82c-9.71-1.68-19.45-3.75-29-6.18.39-1.72.59-2.57,1-4.29a508.56,508.56,0,0,0,64.07,10.82C890.76,810.39,890.69,811.27,890.54,813Zm-47.87,5a9.28,9.28,0,0,0-3.74-.05,8.15,8.15,0,0,0-2.95,1.21,7.18,7.18,0,0,0-2.05,2.06,7.3,7.3,0,0,0-1.06,2.51,7.13,7.13,0,0,0,0,2.94,8.24,8.24,0,0,0,1.28,2.9,9.45,9.45,0,0,0,2.44,2.4,9.29,9.29,0,0,0,3.47,1.43,12.25,12.25,0,0,0,3.61.14,10.47,10.47,0,0,0,3.67-1.06,9,9,0,0,0,3-2.48,8.63,8.63,0,0,0,1.69-4.09c.09-.58.14-.87.23-1.45a16.27,16.27,0,0,0-1.77-2.07,18.48,18.48,0,0,0-2.29-1.9,17.85,17.85,0,0,0-2.66-1.53A14.23,14.23,0,0,0,842.67,818Z" transform="translate(-547.17 -158.92)"/><path class="cls-1" d="M909.46,814.29c-3-.13-4.49-.21-7.47-.4Q900.81,834,899.63,854c-2.53-.16-3.8-.24-6.33-.43q1.43-20.07,2.86-40.13c-3.24-.25-4.86-.39-8.1-.69.16-1.75.23-2.63.39-4.38,8.47.81,12.71,1.11,21.2,1.48C909.57,811.65,909.53,812.53,909.46,814.29Z" transform="translate(-547.17 -158.92)"/><path class="cls-1" d="M932.05,828.44c.37.93.81,1.95,1.31,3a29.2,29.2,0,0,0,1.79,3.32,26.63,26.63,0,0,0,2.36,3.23,15.47,15.47,0,0,0,3,2.74,14,14,0,0,0,3.76,1.84,12.85,12.85,0,0,0,4.56.54,13,13,0,0,0,4.13-.78,7.34,7.34,0,0,0,2.67-1.69,5.64,5.64,0,0,0,1.4-2.34,7.75,7.75,0,0,0,.31-2.72,5.4,5.4,0,0,0-3-4.63c-1.89-1-4.56-1.47-8-1.33-.42,0-.83,0-1.25.08s-.83.08-1.25.14c-.06-1.82-.08-2.72-.14-4.54a4.86,4.86,0,0,0,.53,0h.27a17,17,0,0,0,4.51-.72,10.89,10.89,0,0,0,3.26-1.59,6.22,6.22,0,0,0,1.92-2.21,4.89,4.89,0,0,0,.55-2.55,4.31,4.31,0,0,0-.62-2.09,4.49,4.49,0,0,0-1.44-1.47,6.2,6.2,0,0,0-2.07-.83,10.14,10.14,0,0,0-2.57-.19,15.06,15.06,0,0,0-1.84.19c-.59.1-1.22.23-1.88.41s-1.36.39-2.1.66-1.58.59-2.53,1c-.85-1.62-1.27-2.42-2.11-4a37.17,37.17,0,0,1,5.26-1.87,24.77,24.77,0,0,1,5.16-.8,15.77,15.77,0,0,1,4.73.44,12.13,12.13,0,0,1,3.85,1.66,8.71,8.71,0,0,1,2.64,2.7,7.66,7.66,0,0,1,1.13,3.54c.24,3.56-1.63,6.59-5.68,9a.49.49,0,0,0,0,.12,15.36,15.36,0,0,1,4.22,1.79c.72,0,1.47.07,2.27.07s1.53,0,2.19-.08,1.4-.16,2.15-.3a13.63,13.63,0,0,0,2.29-.65,14,14,0,0,0,2.34-1.15,14.17,14.17,0,0,0,2.32-1.79L971,808.11c5.26-.54,7.88-.85,13.12-1.56.21,1.74.31,2.61.52,4.35-3,.4-4.46.59-7.43.94q2.07,19.95,4.13,39.9c-2.52.3-3.79.44-6.32.7l-2.05-22.59h-.15a14,14,0,0,1-3.82,1.88,19.42,19.42,0,0,1-3.78.7c-.42,0-.85.06-1.3.06h-1.38s0,.07,0,.12a6.8,6.8,0,0,1,.8,3,10.07,10.07,0,0,1-.7,4.55,10.31,10.31,0,0,1-2.69,3.78,14,14,0,0,1-4.5,2.65,20.09,20.09,0,0,1-6.08,1.17,18.87,18.87,0,0,1-6.57-.74,21.28,21.28,0,0,1-5.3-2.44,20.32,20.32,0,0,1-4.11-3.5,28.36,28.36,0,0,1-3-4,29.53,29.53,0,0,1-2-3.81,31.81,31.81,0,0,1-1.14-3C929.17,829.54,930.13,829.18,932.05,828.44Z" transform="translate(-547.17 -158.92)"/><path class="cls-1" d="M1027.92,802.75c-2.92.71-4.39,1-7.32,1.71q3.93,19.6,7.87,39.21c-2.5.56-3.76.84-6.27,1.37-1.05-5.59-1.57-8.39-2.62-14h-.15a16.35,16.35,0,0,1-5.11,3.64,25.42,25.42,0,0,1-6,1.91,20.86,20.86,0,0,1-6,.29,12.37,12.37,0,0,1-4.88-1.51A10,10,0,0,1,994,832a13.15,13.15,0,0,1-1.78-5.36c-.87-6.6-1.3-9.9-2.17-16.5-3.15.47-4.73.68-7.88,1.09l-.5-4.36c15.29-2.2,30.28-5,45.34-8.41C1027.37,800.19,1027.55,801,1027.92,802.75Zm-13.09,3c-7.6,1.6-11.42,2.31-19.08,3.55.94,6.48,1.4,9.72,2.34,16.2a13.19,13.19,0,0,0,.87,3.27,5.48,5.48,0,0,0,4.42,3.44,11.85,11.85,0,0,0,4-.14,16,16,0,0,0,6.62-2.73,15.33,15.33,0,0,0,4.38-4.77C1017,817,1016.24,813.24,1014.83,805.72Z" transform="translate(-547.17 -158.92)"/><path class="cls-1" d="M1070.71,789.88c-2.85,1-4.28,1.53-7.14,2.5q5.78,19.07,11.56,38.12c-2.44.83-3.67,1.24-6.12,2l-6.35-22c-6.64,2.15-10,3.16-16.69,5,.32,1.27.57,2.36.76,3.27a10.09,10.09,0,0,1,.25,2.32,2.64,2.64,0,0,1-.44,1.5,2.39,2.39,0,0,1-1.32.8,7.08,7.08,0,0,1-3.82,0,12.68,12.68,0,0,1-3.53-1.59,12.31,12.31,0,0,1-2.7-2.38,6.05,6.05,0,0,1-1.33-2.36,2.09,2.09,0,0,1,.18-1.58,3.43,3.43,0,0,1,1.15-1.12,8.33,8.33,0,0,1,1.8-.8c.69-.22,1.39-.43,2.11-.61,9-2.39,13.5-3.71,22.41-6.6-1.41-4.88-2.12-7.32-3.53-12.19-10.79,3.33-21.49,6.33-32.44,9.08-.36-1.71-.54-2.57-.91-4.28a412.82,412.82,0,0,0,44.8-13.32C1069.91,787.39,1070.18,788.22,1070.71,789.88Z" transform="translate(-547.17 -158.92)"/><path class="cls-1" d="M1088.64,783c-2.81,1.16-4.22,1.73-7.05,2.83l13.1,37.53c-2.4.94-3.6,1.4-6,2.31l-12.63-37.72c-3.08,1.16-4.63,1.72-7.73,2.81-.52-1.66-.79-2.49-1.31-4.15,8.11-2.86,12.13-4.4,20.11-7.69C1087.74,780.51,1088,781.33,1088.64,783Z" transform="translate(-547.17 -158.92)"/><path class="cls-1" d="M1148.47,747.35l2.08,3.77c-2.63,1.64-4,2.45-6.6,4L1162.38,790c-2.27,1.37-3.41,2-5.7,3.37-3.6-7-5.4-10.53-9-17.55-7.67,4.45-11.55,6.57-19.39,10.61a12.67,12.67,0,0,1-3.81,3.32c0,.07,0,.1,0,.17a56.92,56.92,0,0,0,10.74,3.85,54,54,0,0,0,12.18,1.54c-.84,2.12-1.27,3.18-2.15,5.29a53.31,53.31,0,0,1-7.35-.61,60.45,60.45,0,0,1-6.87-1.47c-2.2-.61-4.29-1.31-6.29-2.08s-3.85-1.6-5.58-2.47-3.31-1.75-4.74-2.65-2.72-1.75-3.84-2.58c1.53-1.67,2.29-2.51,3.79-4.2a14,14,0,0,0,2.12,1.38,6.91,6.91,0,0,0,1.81.66,4.36,4.36,0,0,0,1.65,0,6.15,6.15,0,0,0,1.61-.55,4.69,4.69,0,0,0,2.77-3.17,6.91,6.91,0,0,0-.63-4.36,12.14,12.14,0,0,0-1.58-2.58,19.86,19.86,0,0,0-2-2.17,26.64,26.64,0,0,0-2.15-1.8c-.72-.54-1.39-1-2-1.43-6,3-9.08,4.46-15.21,7.22-.65-1.61-1-2.42-1.61-4A525.22,525.22,0,0,0,1148.47,747.35Zm-9.78,10.9c-6.77,3.93-10.19,5.8-17.1,9.39a28.06,28.06,0,0,1,4.41,3.76,16.84,16.84,0,0,1,3.07,4.46,12.19,12.19,0,0,1,.81,2.31,8.93,8.93,0,0,1,.24,2.42l.09,0c6.27-3.3,9.38-5,15.54-8.59Z" transform="translate(-547.17 -158.92)"/><path class="cls-1" d="M1167,740.29c-2.57,1.78-3.85,2.65-6.44,4.37l19.85,33.9c-2.2,1.46-3.3,2.19-5.51,3.62L1155.47,748c-2.83,1.83-4.26,2.72-7.12,4.49-.82-1.51-1.23-2.27-2.06-3.78,7.48-4.61,11.18-7,18.46-12.07C1165.65,738.09,1166.1,738.83,1167,740.29Z" transform="translate(-547.17 -158.92)"/><path class="cls-1" d="M1187.8,730.73a12.19,12.19,0,0,1,1.71,3.74,11.94,11.94,0,0,1,.33,4.19,15.49,15.49,0,0,1-1.15,4.49,20.84,20.84,0,0,1-2.75,4.64,9.35,9.35,0,0,0,3.14,1.85,8.43,8.43,0,0,0,3.26.42,9.71,9.71,0,0,0,3.29-.85,15.69,15.69,0,0,0,3.2-2,19.46,19.46,0,0,0,5-5.64,16.82,16.82,0,0,0,2.25-6.57l-13.8-19.21c4.31-3.55,6.45-5.36,10.67-9.08l2.59,3.38c-2.39,2.11-3.6,3.15-6,5.2l23.17,31.33c-2,1.74-3.08,2.61-5.15,4.31l-7.93-11-.14.08a20.12,20.12,0,0,1-1.18,2.59,24.59,24.59,0,0,1-1.83,2.9,30.82,30.82,0,0,1-2.47,3,26.26,26.26,0,0,1-3.1,2.81,18.93,18.93,0,0,1-6.76,3.55,13.66,13.66,0,0,1-11.21-1.74,21.61,21.61,0,0,1-4.24-3.61,23.21,23.21,0,0,0,3.78-4.59,13.27,13.27,0,0,0,1.7-4.09,8.33,8.33,0,0,0,0-3.51,8.66,8.66,0,0,0-1.2-2.89,4.93,4.93,0,0,0-3.16-2.44,4.13,4.13,0,0,0-3.3.84,4.33,4.33,0,0,0-1.74,2.39,3.12,3.12,0,0,0,.39,2.56,3.62,3.62,0,0,0,.4.5,2.7,2.7,0,0,0,.77.51,5.78,5.78,0,0,0,1.31.38,9.23,9.23,0,0,0,2,.11c-.4,1.87-.6,2.8-1,4.66a10.58,10.58,0,0,1-3.18.29,7.17,7.17,0,0,1-2.35-.57,5.84,5.84,0,0,1-1.64-1.08,6.37,6.37,0,0,1-2-4,8.06,8.06,0,0,1,.21-3.14,10.31,10.31,0,0,1,1.56-3.28,13.38,13.38,0,0,1,3.13-3.11,12.59,12.59,0,0,1,3.88-2,8.61,8.61,0,0,1,3.63-.31,7.76,7.76,0,0,1,3.24,1.26A9.94,9.94,0,0,1,1187.8,730.73Z" transform="translate(-547.17 -158.92)"/><path class="cls-1" d="M1220.43,696.38c-2.31,2.24-3.48,3.35-5.82,5.53l24.45,30.16c-2,1.86-3,2.78-5,4.6L1210,706.14c-2.57,2.33-3.87,3.48-6.47,5.75L1201,708.5c2.76-2.4,4.14-3.62,6.86-6.1a21.92,21.92,0,0,0-4.4-2.81,15.26,15.26,0,0,0-3.84-1.25,10.23,10.23,0,0,0-3.25-.07,11.5,11.5,0,0,0-2.65.71,11.24,11.24,0,0,0-2,1.08,16,16,0,0,0-1.41,1.06,9.9,9.9,0,0,0-2.43,2.79,6.52,6.52,0,0,0-.82,2.43,4.38,4.38,0,0,0,.21,1.95,5.74,5.74,0,0,0,.67,1.34c.09.13.3.36.62.71a5.82,5.82,0,0,0,1.5,1.07,11.77,11.77,0,0,0,2.6,1,14.44,14.44,0,0,0,3.92.38c-2,1.64-2.92,2.45-4.89,4.06a13.69,13.69,0,0,1-5.24-1.33,9,9,0,0,1-3.41-2.86,7.85,7.85,0,0,1-1.31-3.26,8.58,8.58,0,0,1,.26-3.77,14,14,0,0,1,2-4,21.08,21.08,0,0,1,3.81-4.1,19.07,19.07,0,0,1,6.47-3.83,14.79,14.79,0,0,1,6.23-.68,16.42,16.42,0,0,1,5.94,1.89,27.22,27.22,0,0,1,5.48,3.9c2.38-2.22,3.56-3.34,5.91-5.61Z" transform="translate(-547.17 -158.92)"/><g id="Layer_1-2" data-name="Layer 1"><path class="cls-4" d="M700.78,743.9l-22,38.08-5.17-3.41,22.49-38.83s1.87-21.54,22.57-6.42c0,0,12,9.63,19.38,30.61l-5.48-2.83" transform="translate(-547.17 -158.92)"/><polygon class="cls-1" points="146.26 583.87 153.43 588.57 154.03 584.98 148.53 580.5 146.26 583.87"/><path class="cls-4" d="M693.43,731s42.93,34,47.89,34.51l4.75-25.09-16.72-11.91L704.41,725Z" transform="translate(-547.17 -158.92)"/><path class="cls-4" d="M692.63,742.81s5.6,2.2,8.57,6.17-17.79,34.3-18.35,34.8-26.08-6.59-26.08-6.59Z" transform="translate(-547.17 -158.92)"/><polygon class="cls-4" points="88.79 540.64 137.17 578.65 106.58 630.81 65.46 613.59 59.65 565.96 88.79 540.64"/><path class="cls-1" d="M679,732.44l-5.95,8.93S664,719.4,649.55,729c0,0-4.51,2.39-3.44,10.14A19.58,19.58,0,0,0,652.39,751a18,18,0,0,0,10.1,4.8l-6.56,8.93,5.1,4.11,11.76-16.44s16.3-5.46,16.16,8.4c0,0-.81,8.5-15.45,4.22l.28,6.24s17.86,6,21.12-9.07c0,0,.85-15.73-17.43-16L684,737Z" transform="translate(-547.17 -158.92)"/><path class="cls-4" d="M668.44,745.56s-1.34-10.83-8.91-12.94a7.33,7.33,0,0,0-9.48,6.85v.2a10,10,0,0,0,5,8.28C659,750.25,665.25,752.51,668.44,745.56Z" transform="translate(-547.17 -158.92)"/><path class="cls-1" d="M626.64,745.74l22.49-38.83s1.87-21.54,22.57-6.42c0,0,12,9.63,19.38,30.61l-5.48-2.83s-18.53-38.37-30.24-25.13c0,0-2.46,7.37-1.51,7.94l-22,38.08Z" transform="translate(-547.17 -158.92)"/><polygon class="cls-1" points="134.28 574.82 137.45 577.18 136.35 578.72 133.2 576.57 134.28 574.82"/><polygon class="cls-1" points="146.76 584.38 151.95 587.85 154.03 584.89 148.53 580.28 146.76 584.38"/></g><path class="cls-2" d="M639.69,415.07c-5.91,7.89-11.59,16.06-16.94,24.34l-1,1.47a6.31,6.31,0,0,1-2.75,2.61,2.7,2.7,0,0,1-2.78-.45,3.93,3.93,0,0,1-1.43-4.53c.43-1.57.66-2.51.71-2.79a2.37,2.37,0,0,0-.18-1.14,6.08,6.08,0,0,0-2.26-2.82L559.85,390a4.74,4.74,0,0,0-3.25-1.31,2,2,0,0,0-1.12.31c-.25.18-1.07.87-2.42,2.08-1.64,1.47-3.19,1.68-4.67.56a3.16,3.16,0,0,1-1.21-2.94,9.9,9.9,0,0,1,1.76-4.43l1.17-1.8q9.93-15.24,20.82-29.83l1.25-1.67a8.27,8.27,0,0,1,3.37-2.92,2.56,2.56,0,0,1,2.86.56c1.36,1.28,1.6,2.95.76,5-.69,1.72-1.07,2.74-1.16,3.05a2.71,2.71,0,0,0,0,1.26,5.61,5.61,0,0,0,2,3.09l50.42,45.81q2.82,2.56,4.49,1.47l1.75-1.19c1.42-1,2.82-.8,4.22.51,1.72,1.62,1.64,3.64-.22,6.12ZM609.4,347.33c17.25,7.35,34.08,15.28,50.73,23.9a11.91,11.91,0,0,0,3.3,1.31,5,5,0,0,0,2.64-.28,7.26,7.26,0,0,1,1.86-.48,3.26,3.26,0,0,1,2.27,1.28c1.58,1.85,1.29,3.9-.85,6.22-7.32,7.86-14.13,16.1-20.92,24.41a5.25,5.25,0,0,1-3,2.12,3.21,3.21,0,0,1-2.91-1,4.24,4.24,0,0,1-1-4.28A9.79,9.79,0,0,0,642,398a2.24,2.24,0,0,0-.63-1.44,9.26,9.26,0,0,0-1.9-1.11c-9.6-4.6-14.46-6.8-24.29-11a18.08,18.08,0,0,1-5.27-3.15,9.57,9.57,0,0,1-2.5-5.21c-2.08-9.92-3.88-19.95-5.4-30a11.74,11.74,0,0,0-3.05-6.77,5.51,5.51,0,0,0-3.23-1.65,5.33,5.33,0,0,0-3.61.74l-2.5,1.45q-2.36,1.39-4-.18a3.91,3.91,0,0,1-1.1-3.4,7,7,0,0,1,1.77-3.35c7.14-8.71,10.79-12.93,18.24-21.09a6.62,6.62,0,0,1,3.56-2.31,3.07,3.07,0,0,1,3,1.15c1.27,1.45,1.37,3.34.34,5.68-.71,1.62-1.06,2.43-1.76,4.06a26.12,26.12,0,0,0-1.76,7.51,50.09,50.09,0,0,0,.35,10.72C608.68,342.16,608.91,343.89,609.4,347.33Z" transform="translate(-547.17 -158.92)"/><path class="cls-2" d="M650.93,274.39a11.61,11.61,0,0,0-2,6.27,11.48,11.48,0,0,0,2.54,6.15l36.3,50.32c2.38,3.3,4.47,5.28,6.15,6a6.1,6.1,0,0,0,5-.39l4.39,6.26a33,33,0,0,1-23.89,6.31c-13.93-1.63-24-10.21-32.67-19.87a57.22,57.22,0,0,1-11.26-19.33,46.24,46.24,0,0,1-2.31-20.74,44.85,44.85,0,0,1,4.26-14.79,43.41,43.41,0,0,1,9.26-12.32Zm4.6-3.93-4.24-6.2a37.4,37.4,0,0,1,13-6.72,32.68,32.68,0,0,1,13.82-.67c14.94,2.52,24.48,13.61,31.05,25s11.08,25.3,9.21,39.93A39.85,39.85,0,0,1,707,345.76l-4.32-6.32a8.24,8.24,0,0,0,1.3-2.5,7.55,7.55,0,0,0,.19-2.63c-.2-2.29-1.36-5.05-3.49-8.26l-34.44-51.88a10.52,10.52,0,0,0-4.25-4,6.35,6.35,0,0,0-2.88-.58A12.24,12.24,0,0,0,655.53,270.46Z" transform="translate(-547.17 -158.92)"/><path class="cls-2" d="M720,215.9c1.38,2.94,2.07,4.41,3.44,7.35a14.84,14.84,0,0,0-4.14,6.71,9.47,9.47,0,0,0,.76,6.71,9.8,9.8,0,0,0,4.3,4.58,16.85,16.85,0,0,0,7.33,1.51c2.1,0,6.68-.26,13.67-.57a52.31,52.31,0,0,1,10.09.29,26.76,26.76,0,0,1,7.53,2.4c6.73,3.18,11.45,8.67,14.35,16.21A39.44,39.44,0,0,1,780,278.36,35.5,35.5,0,0,1,775.21,294a37,37,0,0,1-5.3,6.87,28.77,28.77,0,0,1-6.19,5l-3.39-7.3c2.55-2.6,4.14-5.05,4.76-7.39a11.42,11.42,0,0,0-.88-7.66,10.28,10.28,0,0,0-6.58-5.87c-2.07-.63-5.6-.87-10.61-.6-5.51.29-9.36.55-11.48.6a37.27,37.27,0,0,1-6.46-.41c-8.7-.57-18.4-7.79-22.2-15.28a38,38,0,0,1-4.38-14.79,30.52,30.52,0,0,1,2.65-14.73C708.09,226,713.07,220.41,720,215.9Zm36.43,84.91c1.39,2.9,2.08,4.35,3.46,7.25a21.38,21.38,0,0,1-10.49,2.53c-1.59.06-2.67.14-3.25.23a3.84,3.84,0,0,0-1.51.55,3.14,3.14,0,0,0-1.28,1.37,13.48,13.48,0,0,0-.51,3.05,3.33,3.33,0,0,1-1.18,2.63c-1.83,1.22-3.7.08-5.64-3.45l-12.31-22.38a5.81,5.81,0,0,1-.76-3.49,3.69,3.69,0,0,1,1.43-2.69,2.31,2.31,0,0,1,2.25-.44,7.74,7.74,0,0,1,2.71,2.2,49.16,49.16,0,0,0,8.73,7.77,35.15,35.15,0,0,0,9.27,4.68A14.64,14.64,0,0,0,756.47,300.81Zm-28.15-80.32-3.22-7.07a35.39,35.39,0,0,1,6.93-2.57,57.43,57.43,0,0,1,9.08-1.16,6.37,6.37,0,0,0,2.28-.53,2.4,2.4,0,0,0,1.4-1.74c.24-1,.36-1.56.61-2.6a3.61,3.61,0,0,1,1.88-2.67,2.8,2.8,0,0,1,3,.06,8,8,0,0,1,2.38,3.68l8.53,21.78a5.41,5.41,0,0,1,.24,3.61,3.78,3.78,0,0,1-2,2.45,3.57,3.57,0,0,1-2.54.24,3.72,3.72,0,0,1-1.38-.85,13.65,13.65,0,0,1-1.66-2.21,26.11,26.11,0,0,0-5-5.45,27.74,27.74,0,0,0-6.38-4.08A20.41,20.41,0,0,0,728.32,220.49Z" transform="translate(-547.17 -158.92)"/><path class="cls-2" d="M826.85,275.09c-9.51,3.25-14.23,5.06-23.58,9l-1.36.58a4.45,4.45,0,0,1-3.22.35,3.21,3.21,0,0,1-1.94-2.13,4,4,0,0,1,.84-4.54c1-1,1.58-1.59,1.74-1.79a2.25,2.25,0,0,0,.35-1,7.48,7.48,0,0,0-.53-3.7l-23-67.33a6,6,0,0,0-1.93-3.11,2,2,0,0,0-1-.47c-.27,0-1.19,0-2.75.14a3.44,3.44,0,0,1-3.82-2.51,3.38,3.38,0,0,1,.33-3.12,7,7,0,0,1,3.24-2.44l1.67-.71c9.47-4,19.19-7.71,28.94-11l1.7-.58c3.1-1,5-.34,5.6,2a3.9,3.9,0,0,1-1.47,4.53l-1.81,1.35q-1.68,1.32-.61,5.17l19.13,68.78q1.06,3.86,2.84,4l1.87.12c1.53.09,2.54,1.11,3.05,3.05.63,2.39-.32,4-2.84,4.84C827.69,274.81,827.41,274.9,826.85,275.09Zm-9.22-53c3.92-1.28,5.88-1.89,9.82-3.07q-3.69-15.13-7.37-30.26-.95-3.88-3-4l-2.25-.06a3.43,3.43,0,0,1-3.42-3c-.62-2.4.65-4.1,3.81-5.06l1.71-.51c9.71-2.93,19.62-5.51,29.52-7.68l1.8-.4c3.34-.73,5.22.16,5.63,2.61a3.91,3.91,0,0,1-2,4.36c-1.36.82-2.14,1.33-2.36,1.5a2.32,2.32,0,0,0-.61,1,6.61,6.61,0,0,0-.13,3.77q6.44,35.1,12.88,70.19c.47,2.58,1.32,4,2.53,4.35l1.91.39c1.58.29,2.54,1.44,2.88,3.41.42,2.49-.73,4-3.45,4.62l-1.47.33c-9.68,2.18-14.5,3.44-24.07,6.3l-1.5.45c-2.51.76-4.07-.06-4.7-2.5-.5-1.94-.14-3.42,1.1-4.45l1.56-1.3c1-.74,1.11-2.44.46-5.13q-3.9-16-7.81-32.06c-3.88,1.16-5.82,1.76-9.68,3C818.72,226.18,818.35,224.81,817.63,222.08Z" transform="translate(-547.17 -158.92)"/><path class="cls-2" d="M909.79,257.41c-9.83.88-14.74,1.5-24.52,3.08l-1.42.23a4.45,4.45,0,0,1-3.18-.44,3.44,3.44,0,0,1-1.47-2.54,3.88,3.88,0,0,1,1.67-4.22c1.15-.72,1.83-1.17,2-1.32a2,2,0,0,0,.53-.92,7.53,7.53,0,0,0,.19-3.73q-4.7-35.56-9.4-71.12a6.4,6.4,0,0,0-1.27-3.5,2,2,0,0,0-.87-.69c-.26-.08-1.15-.27-2.68-.53a3.62,3.62,0,0,1-3.2-3.37,3.32,3.32,0,0,1,.91-3,6.42,6.42,0,0,1,3.59-1.59l1.75-.28c9.94-1.62,20-2.87,30.07-3.72l1.76-.15a6.08,6.08,0,0,1,3.81.67,3.2,3.2,0,0,1,1.49,2.66,3.82,3.82,0,0,1-2.43,4.07c-1.43.63-2.26,1-2.5,1.18a2.13,2.13,0,0,0-.7.89,6.49,6.49,0,0,0-.52,3.72l5.34,71.59a7.33,7.33,0,0,0,1,3.59,2,2,0,0,0,.71.77c.21.1,1,.37,2.23.79q2.29.77,2.48,3.69a3.58,3.58,0,0,1-.91,2.84,4.61,4.61,0,0,1-3,1.22A13.9,13.9,0,0,0,909.79,257.41Z" transform="translate(-547.17 -158.92)"/><path class="cls-2" d="M990.53,159.12c-.29,3.16-.44,4.75-.73,7.91-4,.54-6.22,3.68-6.67,9.34l-5.34,66.43a16.18,16.18,0,0,0,.37,6,6.53,6.53,0,0,0,2.83,3.26c-.29,3.22-.43,4.83-.72,8.05a14.59,14.59,0,0,1-3.18-.7,27.32,27.32,0,0,1-3.77-1.81,34.47,34.47,0,0,1-10.09-8.68,49.6,49.6,0,0,1-7.48-13.08c-3-7.82-4.59-17-4.38-27.47.2-10.18,1.94-19.18,5.46-26.93A38.82,38.82,0,0,1,972,163.73a33.36,33.36,0,0,1,12.24-4.59A23.46,23.46,0,0,1,990.53,159.12Zm22.07,92.07a37.8,37.8,0,0,1-6.83,4.6,46.56,46.56,0,0,1-7.57,3.43,34.16,34.16,0,0,1-6.85,1.4,27.81,27.81,0,0,1-6.42.07c.32-3.22.48-4.83.81-8a6.73,6.73,0,0,0,2.55-.89,5.4,5.4,0,0,0,1.59-1.81,14,14,0,0,0,1.58-5.48c.93-8.3,1.39-12.45,2.31-20.75a6.92,6.92,0,0,0-.46-4.11,2.15,2.15,0,0,0-.74-1c-.27-.16-1.18-.55-2.68-1.18a3.91,3.91,0,0,1-2.51-4.35A3.23,3.23,0,0,1,989,210.4a6.76,6.76,0,0,1,4.17-.47l2,.28c9,1.26,13.43,2,22.34,3.8a6.72,6.72,0,0,1,3.71,1.67,3.84,3.84,0,0,1,.6,3.3,4.74,4.74,0,0,1-.83,2.12,6.08,6.08,0,0,1-2,1.52,4.33,4.33,0,0,0-1.79,1.52,10.57,10.57,0,0,0-.8,3C1014.93,236.78,1014.15,241.58,1012.6,251.19Zm-17.31-83.62c.31-3.07.47-4.61.79-7.69,7.27,1.67,13.12,4.06,17.5,7a8.9,8.9,0,0,0,3.06,1.56,2.3,2.3,0,0,0,1.71-.23,23.36,23.36,0,0,0,2.75-2.57,3.48,3.48,0,0,1,3.29-1.18,3.18,3.18,0,0,1,2.47,1.63,6.81,6.81,0,0,1,.18,3.79c-1.8,11-2.7,16.43-4.49,27.39-.59,3.57-2,5.11-4.37,4.65a3.36,3.36,0,0,1-2.43-1.56,12.15,12.15,0,0,1-1-4.47,48.93,48.93,0,0,0-2.11-9.85,47.46,47.46,0,0,0-3.74-9.15,18,18,0,0,0-5.41-6.17A21.37,21.37,0,0,0,995.29,167.57Z" transform="translate(-547.17 -158.92)"/><path class="cls-2" d="M1058.44,193.42c0,6.11-.09,9.16-.22,15.26q-10.74,20.72-20.75,41.75a16.09,16.09,0,0,0-1.23,3.49,7.25,7.25,0,0,0,1.89,7.15l1.67,1.65a4,4,0,0,1,1,4c-.54,2.31-2.12,3.07-4.75,2.34-5.48-1.53-8.23-2.24-13.75-3.55a4.87,4.87,0,0,1-3-1.83,4.13,4.13,0,0,1-.64-3.25c.24-1.36,1.26-2.3,3-2.81a17.22,17.22,0,0,0,3.78-1.48,11.49,11.49,0,0,0,2.63-2.25,28.53,28.53,0,0,0,4.12-7C1040.41,228.82,1049.19,211,1058.44,193.42Zm8.68-16.21c10.61,3.26,15.88,5.06,26.35,9q-3.18,43-8.91,85.67a31.34,31.34,0,0,0-.29,4.08,4.92,4.92,0,0,0,1.41,3,6.39,6.39,0,0,1,1.39,2.3,3.67,3.67,0,0,1-.18,2.23c-.82,2.3-2.59,2.84-5.31,1.67C1073,281.41,1064.1,278,1055.2,275a3.87,3.87,0,0,1-2.3-1.86,3.93,3.93,0,0,1-.27-3,3.82,3.82,0,0,1,1-1.91,6.65,6.65,0,0,1,2.41-1.06,4,4,0,0,0,1.93-1,4.33,4.33,0,0,0,1-1.9,11.71,11.71,0,0,0,.4-2.11c.39-4.21.57-6.31.93-10.52-6.29-2.13-9.45-3.12-15.79-5,1.38-3.12,2.07-4.68,3.48-7.78,5.18,1.53,7.77,2.34,12.91,4.05q2.16-29.72,2.95-59.52C1065.15,181,1065.8,179.72,1067.12,177.21Z" transform="translate(-547.17 -158.92)"/><path class="cls-2" d="M1123.6,226.16c.74,5.86,1.08,8.78,1.68,14.62q-7.12,17.41-14.26,34.82a21.29,21.29,0,0,0-1.82,8.11,13.92,13.92,0,0,0,1.9,6.83c.44.77.66,1.15,1.09,1.92a3.91,3.91,0,0,1,.09,3.62,3.28,3.28,0,0,1-2,1.92c-.78.26-2-.06-3.73-.95-4.72-2.47-7.1-3.66-11.88-5.95-3.14-1.5-4.29-3.36-3.45-5.65a3.08,3.08,0,0,1,1.2-1.65,9.37,9.37,0,0,1,2.89-.86c4.26-.74,7.62-4.09,10-10.2Zm35.22-9c1.69,25.56,2.15,50.91,1.31,76.52l-14.81,26.78c-5.33-3.66-8-5.43-13.44-8.83a721.25,721.25,0,0,0-4.32-95.68,24.33,24.33,0,0,0-.87-4.56,6.21,6.21,0,0,0-1.69-2.52l-2-2.05a3.57,3.57,0,0,1-1.06-1.89,3.92,3.92,0,0,1,1.48-4,3.11,3.11,0,0,1,2-.64c.83,0,2.84.79,6,2.33C1140.71,207.09,1149.9,212,1158.82,217.13Zm6.68,66.8c.13-5.91.16-8.88.16-14.83l9.07-17c1.83-3.43,2.76-6.38,2.77-8.83a15.61,15.61,0,0,0-2.67-8.06,5.92,5.92,0,0,1-1.06-2.44,3.73,3.73,0,0,1,.45-2.14,2.81,2.81,0,0,1,2.31-1.78,6.8,6.8,0,0,1,3.82,1.43c6.05,3.93,9,6,15,10.15,2,1.43,3.15,2.72,3.42,3.79a3.89,3.89,0,0,1-.32,3,2.83,2.83,0,0,1-1.65,1.48,11.49,11.49,0,0,1-3.64-.2,10.32,10.32,0,0,0-7.49,1.74,17.07,17.07,0,0,0-4.83,6Q1173.15,270.09,1165.5,283.93Z" transform="translate(-547.17 -158.92)"/><path class="cls-2" d="M1238.47,272.31l-4.42,6.19c-3.81-2.1-7.27-.86-10.37,3.61l-36.42,52.48a14.38,14.38,0,0,0-2.54,5.29,7.59,7.59,0,0,0,1,4.54l-4.48,6.32a19.3,19.3,0,0,1-2.48-2.61,36.68,36.68,0,0,1-2.48-3.91,42.26,42.26,0,0,1-4.79-13.67,53.55,53.55,0,0,1-.36-15.68,66.15,66.15,0,0,1,9.26-25.82c5-8.43,10.86-14.91,17.66-19.23a33.5,33.5,0,0,1,21.85-5.38,35.62,35.62,0,0,1,13,3.89A27.35,27.35,0,0,1,1238.47,272.31Zm-24.23,91.83a37,37,0,0,1-8.29-.59,50.21,50.21,0,0,1-8.38-2,40.69,40.69,0,0,1-6.77-3.25,35.14,35.14,0,0,1-5.74-4.07l4.55-6.25a7.16,7.16,0,0,0,2.69.88,4.76,4.76,0,0,0,2.27-.5,11.35,11.35,0,0,0,4-3.6l12-16a6.31,6.31,0,0,0,1.55-3.75,2.5,2.5,0,0,0-.18-1.32c-.16-.3-.79-1.22-1.82-2.72a4.25,4.25,0,0,1-.16-5.27,2.69,2.69,0,0,1,2.74-1.2,8,8,0,0,1,3.93,2.28l1.66,1.53c7.36,6.83,11,10.37,18.09,17.72a9,9,0,0,1,2.52,3.85,3.62,3.62,0,0,1-1,3.18,3.7,3.7,0,0,1-1.75,1.24,5.65,5.65,0,0,1-2.47,0,4,4,0,0,0-2.33.11,8.36,8.36,0,0,0-2.16,2Zm24.43-81.69,4.36-6a69.54,69.54,0,0,1,12.24,17.19,11.67,11.67,0,0,0,2,3.31,2.74,2.74,0,0,0,1.63.92,21.12,21.12,0,0,0,3.68-.37,3.84,3.84,0,0,1,3.5,1.16,4.19,4.19,0,0,1,1.44,3,5.85,5.85,0,0,1-1.65,3.31l-17,20.16c-2.22,2.63-4.25,3-6.11,1.05a4.33,4.33,0,0,1-1.42-2.91,11.9,11.9,0,0,1,1.25-4.41,45.75,45.75,0,0,0,2.81-9.68,49.68,49.68,0,0,0,1-10.14,21.66,21.66,0,0,0-1.88-8.7A28.65,28.65,0,0,0,1238.67,282.45Z" transform="translate(-547.17 -158.92)"/><path class="cls-2" d="M1282.79,345.9c-3,5.15-4.43,7.71-7.44,12.8-13,6.85-25.78,13.94-38.47,21.34a12.59,12.59,0,0,0-2.77,2.13,7.1,7.1,0,0,0-1.7,7.33c.29,1,.43,1.52.71,2.53a3.86,3.86,0,0,1-1,4.05c-1.58,1.59-3.36,1.16-5.37-1.23-4.19-5-6.32-7.44-10.64-12.22a6.51,6.51,0,0,1-1.8-3.52,3.89,3.89,0,0,1,1-3.17c.86-1,2.22-1.11,4.06-.36a19.09,19.09,0,0,0,4.09,1.26,10.66,10.66,0,0,0,3.42-.15,22.69,22.69,0,0,0,7-3.13C1249.92,363.85,1266.19,354.66,1282.79,345.9Zm15.49-7.85c6.77,8.41,13.13,17.11,19.46,25.85q-23.16,34.38-48.59,67a26.52,26.52,0,0,0-2.2,3.29,5.45,5.45,0,0,0-.13,3.58,7.75,7.75,0,0,1,.17,3,3,3,0,0,1-1.22,1.78c-1.83,1.39-3.69.58-5.6-2.37-6.15-9.25-12.44-18.24-19-27.2a5.3,5.3,0,0,1-1.19-3.16,3.54,3.54,0,0,1,1.16-2.7,3,3,0,0,1,1.79-1,7.19,7.19,0,0,1,2.68.76,4.15,4.15,0,0,0,2.21.49,3.27,3.27,0,0,0,1.8-.93,9.26,9.26,0,0,0,1.36-1.52c2.34-3.31,3.51-5,5.83-8.32-4.66-6.14-7-9.14-11.86-15,2.72-1.71,4.08-2.56,6.82-4.24,3.93,4.81,5.87,7.27,9.7,12.27q16-24,30.9-48.54Z" transform="translate(-547.17 -158.92)"/></g></svg>